<?xml version="1.0" standalone="no"?><!DOCTYPE svg PUBLIC "-//W3C//DTD SVG 1.1//EN" "http://www.w3.org/Graphics/SVG/1.1/DTD/svg11.dtd"><svg class="icon" width="200px" height="200.00px" viewBox="0 0 1024 1024" version="1.1" xmlns="http://www.w3.org/2000/svg"><path d="M960.9779 235.4893c-14.5357 30.551-39.6083 52.2916-64.8468 72.8218-15.5453 12.628-19.3638 25.6686-20.3551 44.7201-11.4893 217.9133-106.8227 386.0869-307.455 479.5105-166.825 77.6755-335.2084 65.452-496.6912-24.706-3.2492-1.7981-7.5981-2.8262-7.8193-10.3137 65.5626 4.6244 129.1428-3.7458 189.1799-31.2402 24.6497-11.2701 48.9871-23.3462 73.4915-44.5655-12.2614-2.4218-21.0893-3.9639-29.7902-5.9822-61.1011-13.9141-104.8771-49.4479-132.1513-105.7597-6.5341-13.4799-6.2956-20.5281 12.0771-18.9501 17.1059 1.4684 34.4515 0.3123 52.7872-2.4218-84.3203-33.5882-133.7303-90.9466-137.9707-185.5181 26.5595 7.8561 48.9144 19.7222 78.6125 19.116-38.3427-32.5519-64.3871-68.8937-73.344-115.6239-8.7552-45.6387-3.3229-88.7347 21.7682-131.6669 34.9112 38.9581 70.2976 73.5652 111.5587 101.7119 75.8221 51.7233 159.5372 81.2554 250.4837 91.5436 15.5279 1.7531 23.1813 0.77 21.0166-19.1621-8.5166-78.4927 21.6207-140.6874 88.5053-181.3053 67.8564-41.1965 139.605-40.49 203.3869 6.7267 30.2469 22.401 54.4758 23.3646 84.7985 9.7004 19.6925-8.8648 39.5889-17.2073 65.1028-28.2378-15.6027 42.3342-38.6908 72.7112-76.2634 98.1586 35.1119 0.2202 62.7712-14.592 92.286-20.2363L960.9779 235.4893z"  /></svg>