<?xml version="1.0" standalone="no"?><!DOCTYPE svg PUBLIC "-//W3C//DTD SVG 1.1//EN" "http://www.w3.org/Graphics/SVG/1.1/DTD/svg11.dtd"><svg class="icon" width="200px" height="200.00px" viewBox="0 0 1024 1024" version="1.1" xmlns="http://www.w3.org/2000/svg"><path d="M369.780448 554.318678c-88.733227 12.255617-152.475235 80.925471-142.491547 153.307209 10.015687 72.381738 90.045186 121.148214 178.778413 108.892597 88.669229-12.255617 152.507234-80.925471 142.491547-153.371207C538.575173 590.765539 458.513675 542.031062 369.780448 554.318678zM343.893257 758.824287c-31.199025 4.319865-59.294147-12.7996-62.846036-38.270804-3.487891-25.407206 18.911409-49.534452 50.110434-53.886316 31.167026-4.287866 59.294147 12.831599 62.846036 38.302803C397.491582 730.409175 375.060283 754.504422 343.893257 758.824287zM423.442771 676.938846c-13.087591 3.327896-25.91919-2.655917-28.575107-13.343583-2.719915-10.687666 5.695822-22.015312 18.783413-25.311209 13.087591-3.295897 25.855192 2.655917 28.575107 13.343583C444.978098 662.315303 436.466364 673.674948 423.442771 676.938846zM830.374055 434.290428c4.607856 1.951939 9.439705 2.87991 14.175557 2.87991 14.175557 0 27.711134-8.351739 33.59895-22.271304 6.783788-15.9995 10.207681-33.054967 10.207681-50.590419 0-71.645761-58.270179-129.947939-129.91594-129.947939-17.503453 0-34.526921 3.423893-50.590419 10.207681-18.55942 7.871754-27.231149 29.279085-19.391394 47.806506 7.871754 18.55942 29.279085 27.263148 47.838505 19.423393 7.007781-2.943908 14.463548-4.447861 22.143308-4.447861 31.391019 0 56.95822 25.535202 56.95822 56.95822 0 7.743758-1.471954 15.199525-4.415862 22.175307C803.110907 405.011343 811.814635 426.450673 830.374055 434.290428zM745.41671 488.080747c3.583888-10.271679 7.135777-20.415362 7.135777-20.415362 63.870004-122.588169-100.79685-162.55492-195.225899-110.460548-94.39705 52.15837-48.830474-36.094872-48.830474-36.094872 15.615512-161.178963-153.819193-89.853192-153.819193-89.853192-393.491703 220.665104-353.524952 439.34627-353.524952 439.34627 0 120.348239 188.666104 254.744039 426.610668 254.744039 315.222149 0 494.960532-184.282241 463.729508-321.237961C878.85254 548.81485 813.190592 501.42433 745.41671 488.080747zM380.884101 862.757039c-206.39355 0-276.215368-107.356645-276.215368-184.95422 0-122.940158 162.87491-213.75332 316.214118-213.75332 153.307209 0 262.583794 65.149964 287.607012 150.587294C745.544706 741.064842 583.949756 862.757039 380.884101 862.757039zM758.440303 98.684916c-22.495297 0-44.926596 2.847911-66.55792 8.447736-19.487391 5.023843-31.231024 24.927221-26.207181 44.446611 5.087841 19.487391 24.95922 31.231024 44.446611 26.207181 15.67951-4.095872 31.935002-6.111809 48.350489-6.111809 106.172682 0 192.601981 86.429299 192.601981 192.601981 0 22.783288-3.967876 45.054592-11.647636 66.141933-6.911784 18.911409 2.815912 39.902753 21.727321 46.782538 4.127871 1.503953 8.351739 2.23993 12.511609 2.23993 14.879535 0 28.895097-9.215712 34.270929-23.99925 10.623668-29.151089 16.063498-59.83813 16.063498-91.19715C1023.968005 217.849192 904.867727 98.684916 758.440303 98.684916z"  /></svg>