<?xml version="1.0" standalone="no"?><!DOCTYPE svg PUBLIC "-//W3C//DTD SVG 1.1//EN" "http://www.w3.org/Graphics/SVG/1.1/DTD/svg11.dtd"><svg class="icon" width="200px" height="200.00px" viewBox="0 0 1024 1024" version="1.1" xmlns="http://www.w3.org/2000/svg"><path d="M695.69024 343.114752c11.828224 0 23.489536 0.869376 35.08224 2.189312C699.266048 195.767296 542.396416 84.672512 363.307008 84.672512c-200.204288 0-364.189696 139.027456-364.189696 315.610112 0 101.974016 54.561792 185.621504 145.742848 250.55744l-36.453376 111.645696 127.3344-65.052672c45.541376 9.171968 82.093056 18.62656 127.566848 18.62656 11.42784 0 22.75328-0.56832 34.015232-1.470464-7.117824-24.792064-11.261952-50.787328-11.261952-77.765632C386.060288 474.692608 522.682368 343.114752 695.69024 343.114752L695.69024 343.114752zM497.321984 234.959872c31.108096 0 56.29952 25.694208 56.29952 57.368576 0 31.70816-25.192448 57.38496-56.29952 57.38496-31.105024 0-56.298496-25.675776-56.298496-57.38496C441.024512 260.65408 466.217984 234.959872 497.321984 234.959872L497.321984 234.959872zM242.490368 350.866432c-31.074304 0-56.298496-25.6768-56.298496-57.368576 0-31.690752 25.225216-57.38496 56.298496-57.38496 31.106048 0 56.332288 25.694208 56.332288 57.38496C298.822656 325.189632 273.596416 350.866432 242.490368 350.866432L242.490368 350.866432zM1025.534976 633.566208c0-148.36736-145.71008-269.318144-309.361664-269.318144-173.274112 0-309.730304 120.951808-309.730304 269.318144 0 148.632576 136.456192 269.31712 309.730304 269.31712 36.286464 0 72.869888-9.322496 109.290496-18.62656l99.902464 55.764992-27.396096-92.751872C971.07456 791.370752 1025.534976 717.262848 1025.534976 633.566208L1025.534976 633.566208zM621.016064 591.968256c-22.15424 0-40.095744-18.29376-40.095744-40.863744 0-22.552576 17.941504-40.845312 40.095744-40.845312 22.150144 0 40.093696 18.291712 40.093696 40.845312C661.110784 573.674496 643.166208 591.968256 621.016064 591.968256L621.016064 591.968256zM821.220352 594.290688c-22.152192 0-40.093696-18.29376-40.093696-40.863744 0-22.567936 17.974272-40.845312 40.093696-40.845312 22.152192 0 40.128512 18.277376 40.128512 40.845312C861.348864 575.995904 843.372544 594.290688 821.220352 594.290688L821.220352 594.290688zM821.220352 594.290688"  /></svg>